<?xml version="1.0" encoding="utf-8"?>
<!-- Generator: Adobe Illustrator 21.0.2, SVG Export Plug-In . SVG Version: 6.00 Build 0)  -->
<svg version="1.1" id="Layer_1" xmlns="http://www.w3.org/2000/svg" xmlns:xlink="http://www.w3.org/1999/xlink" x="0px" y="0px"
	 viewBox="0 0 2719 1080" style="enable-background:new 0 0 2719 1080;" xml:space="preserve">
<style type="text/css">
	.st0{fill:url(#SVGID_1_);}
	.st1{fill:url(#SVGID_2_);}
	.st2{opacity:0.17;fill:url(#SVGID_3_);enable-background:new    ;}
	.st3{fill:#FFE0A9;}
	.st4{fill:#CEDDF7;}
	.st5{opacity:0.2;fill:#FFFFFF;enable-background:new    ;}
	.st6{opacity:0.6;fill:#FFFFFF;enable-background:new    ;}
	.st7{fill:#FFFFFF;}
	.st8{fill:url(#SVGID_4_);}
	.st9{opacity:0.14;fill:#CEDDF7;enable-background:new    ;}
</style>
<title>01-home-header-bg-new</title>
<linearGradient id="SVGID_1_" gradientUnits="userSpaceOnUse" x1="1472.4526" y1="1197.1948" x2="1305.1316" y2="223.6669" gradientTransform="matrix(1 0 0 -1 0 1080)">
	<stop  offset="0" style="stop-color:#F8F5FF"/>
	<stop  offset="1" style="stop-color:#EFF8FF"/>
</linearGradient>
<rect class="st0" width="2719" height="1080"/>
<linearGradient id="SVGID_2_" gradientUnits="userSpaceOnUse" x1="2232.6147" y1="1089.3593" x2="2103.9045" y2="340.5192" gradientTransform="matrix(1 0 0 -1 0 1080)">
	<stop  offset="0" style="stop-color:#FFE800"/>
	<stop  offset="1" style="stop-color:#FFC200"/>
</linearGradient>
<path class="st1" d="M1834.5-0.5c0,0-400.4,63-311.5,388.3c57,208.5,461.3,151.7,593.7,356.1c110.5,170.4-36.5,336.2-36.5,336.2
	H2719L2718.5-0.5H1834.5z"/>
<linearGradient id="SVGID_3_" gradientUnits="userSpaceOnUse" x1="2285.6533" y1="1074.3494" x2="2145.7834" y2="260.5594" gradientTransform="matrix(1 0 0 -1 0 1080)">
	<stop  offset="0" style="stop-color:#FF6600"/>
	<stop  offset="1" style="stop-color:#FFD472"/>
</linearGradient>
<path class="st2" d="M2115.9,0c0,0,219.1,180,135.1,372s-348,168-525,342s-243,366-243,366h1236V-1L2115.9,0z"/>
<circle class="st3" cx="1348" cy="531" r="10"/>
<circle class="st3" cx="964" cy="196" r="10"/>
<circle class="st3" cx="194" cy="805" r="10"/>
<circle class="st3" cx="277" cy="153" r="10"/>
<circle class="st3" cx="339.7" cy="650" r="10"/>
<circle class="st3" cx="1142" cy="805" r="20"/>
<circle class="st3" cx="734" cy="785" r="20"/>
<circle class="st4" cx="141.5" cy="975.5" r="42.5"/>
<circle class="st4" cx="1647.5" cy="627.5" r="22.5"/>
<circle class="st4" cx="1090.5" cy="459.9" r="11.4"/>
<circle class="st5" cx="2576.5" cy="787.5" r="22.5"/>
<circle class="st5" cx="2670" cy="217" r="11"/>
<circle class="st5" cx="2435.1" cy="408" r="11"/>
<circle class="st5" cx="2461.5" cy="402.5" r="5.5"/>
<circle class="st5" cx="2516.6" cy="749.3" r="5.5"/>
<circle class="st5" cx="2686.5" cy="930.1" r="5.5"/>
<circle class="st5" cx="2240.9" cy="476" r="16.1"/>
<circle class="st6" cx="1647.5" cy="1005.5" r="22.5"/>
<circle class="st6" cx="2006.6" cy="735.1" r="8.8"/>
<circle class="st6" cx="2314.6" cy="971" r="22.5"/>
<circle class="st5" cx="2018" cy="194" r="50"/>
<circle class="st4" cx="1440.5" cy="143.5" r="42.5"/>
<circle class="st3" cx="571" cy="420" r="29"/>
<circle class="st7" cx="2418.4" cy="202.5" r="33.4"/>
<circle class="st7" cx="2504.2" cy="189.5" r="46.4"/>
<circle class="st7" cx="2377.7" cy="219.2" r="16.7"/>
<circle class="st7" cx="2545.3" cy="219.2" r="16.7"/>
<circle class="st7" cx="2451.8" cy="219.2" r="16.7"/>
<circle class="st7" cx="2467.2" cy="219.2" r="16.7"/>
<circle class="st7" cx="2447.1" cy="174.5" r="22.7"/>
<circle class="st7" cx="2467.8" cy="194.5" r="24.7"/>
<rect x="2377.7" y="219.2" class="st7" width="167.6" height="16.7"/>
<circle class="st7" cx="2187.7" cy="325.8" r="16.1"/>
<circle class="st7" cx="2218.1" cy="319.5" r="22.4"/>
<circle class="st7" cx="2168.1" cy="333.8" r="8.1"/>
<circle class="st7" cx="2248.9" cy="333.8" r="8.1"/>
<circle class="st7" cx="2203.8" cy="333.8" r="8.1"/>
<circle class="st7" cx="2211.2" cy="333.8" r="8.1"/>
<circle class="st7" cx="2239.3" cy="323.6" r="12.3"/>
<circle class="st7" cx="2196.6" cy="311.9" r="7.1"/>
<circle class="st7" cx="2266.6" cy="337.9" r="3.9"/>
<circle class="st7" cx="2296" cy="337.9" r="3.9"/>
<circle class="st7" cx="2281.6" cy="337.9" r="3.9"/>
<circle class="st7" cx="2287.6" cy="332.9" r="8.9"/>
<circle class="st7" cx="2273.6" cy="334.9" r="6.9"/>
<rect x="2168.1" y="333.8" class="st7" width="80.9" height="8.1"/>
<rect x="2266.4" y="336" class="st7" width="29.6" height="5.8"/>
<linearGradient id="SVGID_4_" gradientUnits="userSpaceOnUse" x1="597.7672" y1="909.5139" x2="480.9792" y2="230.0114" gradientTransform="matrix(1 0 0 -1 0 1080)">
	<stop  offset="0" style="stop-color:#FFE800"/>
	<stop  offset="1" style="stop-color:#FFC200"/>
</linearGradient>
<path class="st8" d="M0,0c0,0,63.8,589.3,248,805c164,192,283.9,225.8,506,160c250-74,314,118,314,118L0,1080V0z"/>
<circle class="st5" cx="204" cy="1005.5" r="5.5"/>
<circle class="st5" cx="154.3" cy="812.3" r="12.8"/>
<circle class="st5" cx="53.7" cy="627.6" r="5.5"/>
<circle class="st5" cx="880.6" cy="1018" r="18"/>
<path class="st9" d="M1170,116.5c0,118.8-96.7,215.5-215.5,215.5S739,235.3,739,116.5c0-42.9,12.6-82.9,34.3-116.5h-23.6
	c-20,35.1-30.7,75-30.7,116.5c0,62.9,24.5,122,69,166.5c44.5,44.5,103.6,69,166.5,69s122-24.5,166.5-69c44.5-44.5,69-103.6,69-166.5
	c0-41.5-10.7-81.4-30.7-116.5h-23.6C1157.4,33.6,1170,73.6,1170,116.5z"/>
<path class="st9" d="M99,195c-29-29-62.3-52.5-99-70.1v22.5c109.2,56.2,184,170.1,184,301.1S109.2,693.4,0,749.6v22.5
	C36.7,754.5,70,731,99,702c32.9-32.9,58.8-71.3,76.8-114c18.7-44.2,28.2-91.2,28.2-139.5c0-48.4-9.5-95.3-28.2-139.5
	C157.8,266.3,131.9,227.9,99,195z"/>
<path class="st9" d="M709,984c-44.5-44.5-103.6-69-166.5-69s-122,24.5-166.5,69c-27.3,27.3-47.1,60.2-58.3,96h21.2
	c29.3-84.3,109.5-145,203.6-145s174.4,60.7,203.6,145h21.2C756.1,1044.1,736.3,1011.3,709,984z"/>
</svg>
